<?xml version="1.0" encoding="utf-8"?>
<!-- Generator: Adobe Illustrator 16.0.0, SVG Export Plug-In . SVG Version: 6.00 Build 0)  -->
<!DOCTYPE svg PUBLIC "-//W3C//DTD SVG 1.1//EN" "http://www.w3.org/Graphics/SVG/1.1/DTD/svg11.dtd">
<svg version="1.1" id="Layer_1" xmlns="http://www.w3.org/2000/svg" xmlns:xlink="http://www.w3.org/1999/xlink" x="0px" y="0px"
	 width="585px" height="500px" viewBox="0 0 585 500" enable-background="new 0 0 585 500" xml:space="preserve">
<g>
	<path fill="#DE2119" d="M241.839,205.667c0,0-36.667,45.999-36,77.333s-31.999,36.668-35.333,67.334s-58.667,71.333-58.667,111.333
		c0,0-26.001-24.666-28.667-43.333S47.84,367,40.506,341.667s-28.666-57.333-32-74S-2.828,238.334,13.172,219s24-68.667,50-86.667
		s38.667-84,68.667-93.333L241.839,205.667z"/>
	<path fill="none" stroke="#000000" stroke-width="2" stroke-miterlimit="10" d="M241.839,205.667c0,0-36.667,45.999-36,77.333
		s-31.999,36.668-35.333,67.334s-58.667,71.333-58.667,111.333c0,0-26.001-24.666-28.667-43.333S47.84,367,40.506,341.667
		s-28.666-57.333-32-74S-2.828,238.334,13.172,219s24-68.667,50-86.667s38.667-84,68.667-93.333L241.839,205.667z"/>
	<polygon points="94.306,152.229 119.928,200.859 145.963,150.268 138.867,208.404 185.37,188.511 148.875,228.952 194.087,249.063 
		145.27,252.884 168.037,303.593 129.739,269.004 119.407,326.582 109.549,269.772 70.951,307.276 94.147,254.824 45.345,254.709 
		90.739,231.158 54.568,193.477 100.921,209.845 	"/>
	<path fill="#FFC500" d="M106.354,146.533c2.384,7.857-1.077,16.777-7.731,19.923c-6.654,3.146-13.98-0.674-16.365-8.532
		c-2.385-7.857,1.076-16.778,7.73-19.924C96.642,134.854,103.969,138.674,106.354,146.533z"/>
	<path fill="#FFC500" d="M61.679,179.934c6.103,3.999,8.163,13.286,4.597,20.747c-3.564,7.463-11.401,10.27-17.505,6.272
		c-6.104-3.998-8.161-13.287-4.598-20.748C47.737,178.743,55.576,175.936,61.679,179.934z"/>
	<path fill="#FFC500" d="M44.342,239.146c6.967-1.734,13.582,3.577,14.774,11.861c1.192,8.288-3.488,16.407-10.455,18.142
		c-6.967,1.732-13.581-3.579-14.774-11.863S37.375,240.881,44.342,239.146z"/>
	<path fill="#FFC500" d="M62.456,296.462c4.571-6.652,12.647-7.806,18.039-2.573c5.392,5.234,6.058,14.869,1.487,21.522
		c-4.57,6.654-12.645,7.803-18.038,2.572C58.553,312.751,57.888,303.115,62.456,296.462z"/>
	<path fill="#FFC500" d="M107.545,325.064c0.036-8.46,5.794-15.538,12.862-15.807c7.068-0.267,12.769,6.375,12.734,14.833
		c-0.035,8.463-5.793,15.536-12.863,15.806C113.211,340.165,107.51,333.523,107.545,325.064z"/>
	<path fill="#FFC500" d="M158.513,311.568c-4.517-6.309-3.771-15.998,1.666-21.643c5.438-5.643,13.506-5.103,18.022,1.205
		c4.517,6.309,3.77,15.997-1.667,21.643C171.097,318.416,163.028,317.877,158.513,311.568z"/>
	<path fill="#FFC500" d="M191.507,262.289c-6.954-1.206-11.57-8.974-10.308-17.351c1.263-8.379,7.922-14.193,14.877-12.988
		c6.956,1.204,11.569,8.973,10.309,17.352C205.122,257.68,198.46,263.495,191.507,262.289z"/>
	<path fill="#FFC500" d="M198.093,211.286c-6.138,4.46-13.957,2.25-17.461-4.941c-3.502-7.193-1.366-16.641,4.773-21.105
		c6.138-4.463,13.954-2.249,17.459,4.943C206.369,197.376,204.232,206.824,198.093,211.286z"/>
	<path fill="#FFC500" d="M157.463,154.568c-2.452,8.042-9.813,12.424-16.442,9.782c-6.629-2.644-10.017-11.303-7.566-19.346
		c2.45-8.042,9.811-12.419,16.441-9.779C156.525,137.869,159.915,146.528,157.463,154.568z"/>
	<path fill="#FFC500" d="M112.955,215.361c0.615,3.896-1.544,7.766-4.822,8.646c-3.277,0.878-6.433-1.565-7.047-5.463
		c-0.615-3.896,1.545-7.766,4.822-8.646C109.185,209.021,112.339,211.465,112.955,215.361z"/>
	<path fill="#FFC500" d="M103.464,226.229c2.579,2.418,2.951,6.956,0.837,10.133c-2.116,3.178-5.921,3.792-8.498,1.374
		c-2.577-2.421-2.953-6.956-0.837-10.134C97.082,224.424,100.887,223.809,103.464,226.229z"/>
	<path fill="#FFC500" d="M101.808,241.604c3.334-0.188,6.065,2.893,6.103,6.881c0.036,3.989-2.638,7.375-5.973,7.566
		c-3.335,0.19-6.068-2.891-6.104-6.881C95.799,245.183,98.472,241.795,101.808,241.604z"/>
	<path fill="#FFC500" d="M108.759,254.299c2.53-2.71,6.342-2.525,8.514,0.406c2.171,2.935,1.879,7.511-0.653,10.219
		c-2.531,2.709-6.344,2.528-8.514-0.406C105.935,261.585,106.227,257.01,108.759,254.299z"/>
	<path fill="#FFC500" d="M121.066,258.37c0.543-3.961,3.651-6.762,6.941-6.256c3.29,0.504,5.516,4.129,4.973,8.089
		c-0.544,3.961-3.651,6.763-6.942,6.256C122.749,265.955,120.522,262.332,121.066,258.37z"/>
	<path fill="#FFC500" d="M132.969,251.912c-1.699-3.357-0.748-7.832,2.122-9.991c2.869-2.159,6.572-1.185,8.27,2.175
		c1.699,3.359,0.75,7.834-2.12,9.992C138.372,256.246,134.668,255.272,132.969,251.912z"/>
	<path fill="#FFC500" d="M138.9,237.947c-3.146-1.186-4.796-5.238-3.691-9.052c1.105-3.813,4.554-5.941,7.7-4.756
		s4.8,5.238,3.692,9.054C145.496,237.004,142.047,239.134,138.9,237.947z"/>
	<path fill="#FFC500" d="M136.083,223.013c-3.122,1.543-6.601-0.195-7.778-3.878c-1.174-3.684,0.406-7.921,3.527-9.463
		c3.12-1.543,6.603,0.193,7.777,3.878C140.784,217.229,139.206,221.468,136.083,223.013z"/>
	<path fill="#FFC500" d="M125.837,214.093c-1.636,3.549-5.318,4.938-8.224,3.111c-2.906-1.829-3.935-6.192-2.3-9.742
		c1.637-3.548,5.319-4.942,8.225-3.111C126.444,206.181,127.473,210.541,125.837,214.093z"/>
	<path fill="#FFFFFF" d="M343.001,204.667c0,0,36.667,45.999,36,77.333s31.999,36.668,35.333,67.334s58.667,71.333,58.667,111.333
		c0,0,26.001-24.666,28.667-43.333S537,366,544.334,340.667s28.666-57.333,32-74s11.334-29.333-4.666-48.667s-24-68.667-50-86.667
		s-38.667-84-68.667-93.333L343.001,204.667z"/>
	<path fill="#08639C" d="M397.036,122.795c4.565,6.8,37.069,55.963,38.464,79.205c1.5,25,41.508,47.5,47.504,89
		c4.845,33.534,35.152,50.094,46.611,78.165c6.433-9.788,12.142-19.596,14.719-28.498c2.341-8.086,6.11-16.852,10.263-25.581
		L546.5,277L426.812,77.682L397.036,122.795z"/>
	<path fill="#FFC500" d="M552.301,320.015c9.217-20.234,21.563-40.999,24.033-53.348c0.788-3.938,1.834-7.651,2.765-11.283
		l-63.432-106.05l-72.46-96.493l-22.354,33.868l-2.52,5.958c0,0,30,39.334,39.333,64.667s50,68.667,58,102.667
		C521.787,286.013,541.555,299.157,552.301,320.015z"/>
	<path fill="#DE2119" d="M438.07,60.623c6.666,10.149,30.544,47.263,36.264,66.711c6.666,22.667,45.334,52.667,56,90
		c9.32,32.625,28.314,29.615,39.187,67.485c3.284-7.003,5.832-13.245,6.813-18.151c3.334-16.667,11.334-29.333-4.666-48.667
		s-24-68.667-50-86.667s-38.667-84-68.667-93.333L438.07,60.623z"/>
	<path d="M403,223.423C394.5,191.847,370,169,370,169l-17.167,20.77l-9.832,14.897c0,0,36.667,45.999,36,77.333
		s31.999,36.668,35.333,67.334s58.667,71.333,58.667,111.333c0,0,26.001-24.666,28.667-43.333c0.336-2.353,1.15-4.928,2.328-7.683
		c-15.299-34.355-48.606-71.973-52.496-93.151C447,292,411.5,255,403,223.423z"/>
	<path fill="none" stroke="#000000" stroke-width="2" stroke-miterlimit="10" d="M343.001,204.667c0,0,36.667,45.999,36,77.333
		s31.999,36.668,35.333,67.334s58.667,71.333,58.667,111.333c0,0,26.001-24.666,28.667-43.333S537,366,544.334,340.667
		s28.666-57.333,32-74s11.334-29.333-4.666-48.667s-24-68.667-50-86.667s-38.667-84-68.667-93.333L343.001,204.667z"/>
	<path fill="none" stroke="#000000" stroke-miterlimit="10" d="M457.666,72c0,0,18.67,49.169,12.667,74s13.342,54.667,12.671,65.333
		"/>
	<path fill="none" stroke="#000000" stroke-miterlimit="10" d="M457.666,108.667c0,0,3.333,39.483,0,52.742
		s10.021,31.925,12.678,55.925"/>
	<path fill="none" stroke="#000000" stroke-miterlimit="10" d="M432.333,155.334c0,0-5.67,30-8.835,45.333
		s4.31,25.372,14.572,40.019s28.929,81.98,15.596,109.98"/>
	<path fill="none" stroke="#000000" stroke-miterlimit="10" d="M548.597,223.334c0,0,6.403,9.333,3.736,21.333
		s3.966,23.334,0.649,40.667"/>
	<path fill="none" stroke="#000000" stroke-miterlimit="10" d="M463.739,278.667c0,0,12.791,27.066,6.604,46"/>
	<path fill="none" stroke="#000000" stroke-miterlimit="10" d="M127.174,73c0,0-18.67,49.169-12.667,74
		s-13.342,54.667-12.671,65.333"/>
	<path fill="none" stroke="#000000" stroke-miterlimit="10" d="M127.174,109.667c0,0-3.333,39.483,0,52.742
		s-10.021,31.925-12.678,55.925"/>
	<path fill="none" stroke="#000000" stroke-miterlimit="10" d="M152.507,156.334c0,0,5.67,30,8.835,45.333
		s-4.31,25.372-14.572,40.019s-28.929,81.98-15.596,109.98"/>
	<path fill="none" stroke="#000000" stroke-miterlimit="10" d="M30.243,212.334c0,0-6.403,9.333-3.736,21.333
		s-3.966,23.334-0.649,40.667"/>
	<path fill="none" stroke="#000000" stroke-miterlimit="10" d="M121.101,279.667c0,0-12.791,27.066-6.604,46"/>
	<path d="M253.912,240.858l3.953,6.976c0,0-2.558,5.738-1.977,7.985c0,0-22.984-10.058-26.858,11.069s15.401,33.5,31.419,31.871
		c0,0,1.214,3.488,2.454,4.418l-5.736,8.837c0,0-37.776,1.836-44.351-40.356C211.576,245.895,236.936,234.58,253.912,240.858z"/>
	<path d="M322.511,303.178l6.045,8.849c0,0,46.274-1.64,43.95-44.427c-1.86-19.3-17.905-34.647-42.322-25.578l-6.176,10.697
		l1.758,6.621c0,0,6.278-4.414,13.254-5.053c6.977-0.639,19.99-4.264,19.302,21.738c-1.164,13.201-15.116,22.502-30.928,22.037
		C327.394,298.063,325.3,301.783,322.511,303.178z"/>
	<path d="M261.471,252c0,0-3.843,50.667,15.774,62.667c19.618,12,49.485-6.667,53.29-36c2.342-17-7.905-18.666-12.591-18
		c0,0,5.856,28.999-16.397,39.666c-14.984,4.968-27.694,1.896-27.169-25.886L261.471,252z"/>
	<path d="M305.292,282.259c0,0-2.866,12.12-11.224,11.145c0,0-43.95-58.814-45.54-85.191s4.131-41.632,23.517-56.886
		c16.208-10.487,48.305-11.885,64.513,33.306c4.767,14.682,1.883,38.236-16.855,66.501c-6.785,10.285-13.057,19.793-13.057,19.793
		l-10.957-11.548c0,0,23.708-34.787,26.568-45.519c2.86-10.732,1.271-32.025-14.619-47.915c-8.58-7.627-27.717-12.077-41.348,16.843
		c-4.415,9.534-1.937,33.079,7.728,49.895C283.682,249.498,302.2,277.572,305.292,282.259z"/>
	<path d="M279.906,325.834l-8.239,9.833c0,0-8,25.668-16,33.334s-5.655,21.666-5.828,31.666s-16.505,44-21.505,51.667
		s-6,15.666-5.667,21.333s10-9,15.667-7.333s6.678,9.666,11.505,10.333s3.885-34.999,9.19-43.666s7.971-33.666,5.971-42
		s2-19.666,6.333-24S279.477,334.038,279.906,325.834z"/>
	<path d="M306.607,325.834l8.24,9.833c0,0,8,25.668,16,33.334s5.654,21.666,5.827,31.666s16.505,44,21.505,51.667
		s6.001,15.666,5.668,21.333c-0.334,5.667-10.001-9-15.668-7.333c-5.666,1.667-6.678,9.666-11.505,10.333s-3.886-34.999-9.19-43.666
		s-7.971-33.666-5.971-42s-2-19.666-6.334-24C310.848,362.667,307.037,334.038,306.607,325.834z"/>
	<path d="M278.799,319.643c-7.202-1.69-12.309-10.877-12.309-10.877l0,0L149.057,486.79c-1.49,2.26,0.342,6.096,4.091,8.569
		c3.749,2.473,7.996,2.646,9.486,0.387L278.799,319.643L278.799,319.643z"/>
	<path d="M468.577,6.942c-8.453-5.755-19.648-3.628-25.003,4.75c-3.81,5.958-3.62,13.466-0.162,19.38L341.83,189.987v0
		c0,0,1.838,25.993-10.242,46.504l125.4-196.178c6.631,0.953,13.393-1.823,17.201-7.781
		C479.544,24.155,477.032,12.697,468.577,6.942z"/>
	<path d="M283.332,283.771l-5.316,6.793c2.539,6.095,6.923,7.606,9.844,7.881l2.463-3.146L283.332,283.771z"/>
	<path d="M436.783,486.79L319.35,308.765v0.001c0,0-5.58,6.26-13.548,8.997l0,0l117.405,177.983
		c1.489,2.259,5.736,2.086,9.485-0.387C436.441,492.886,438.273,489.05,436.783,486.79z"/>
	<path d="M256.846,240.548c-16.154-28.845-11.717-48.811-11.717-48.811l0,0L142.428,31.072c3.458-5.915,3.647-13.422-0.162-19.38
		c-5.354-8.377-16.55-10.504-25.003-4.75c-8.455,5.755-10.967,17.212-5.612,25.59c3.809,5.958,10.57,8.734,17.201,7.781
		L256.846,240.548L256.846,240.548z"/>
</g>
</svg>
